<mxfile host="app.diagrams.net" modified="2024-03-09T22:54:30.955Z" agent="Mozilla/5.0 (Windows NT 10.0; Win64; x64) AppleWebKit/537.36 (KHTML, like Gecko) Chrome/122.0.0.0 Safari/537.36 Edg/122.0.0.0" etag="BOLd19RsiGyc-HWSOaHR" version="24.0.3" type="device">
  <diagram name="Página-1" id="eNvmCKqVrtrn8N-OGCcW">
    <mxGraphModel dx="1461" dy="669" grid="1" gridSize="10" guides="1" tooltips="1" connect="1" arrows="1" fold="1" page="1" pageScale="1" pageWidth="827" pageHeight="1169" math="0" shadow="0">
      <root>
        <mxCell id="0" />
        <mxCell id="1" parent="0" />
        <mxCell id="bXIoARrkf679ZsKBz-0Q-4" value="" style="edgeStyle=orthogonalEdgeStyle;rounded=0;orthogonalLoop=1;jettySize=auto;html=1;" edge="1" parent="1" source="bXIoARrkf679ZsKBz-0Q-2" target="bXIoARrkf679ZsKBz-0Q-3">
          <mxGeometry relative="1" as="geometry" />
        </mxCell>
        <mxCell id="bXIoARrkf679ZsKBz-0Q-2" value="INICIO" style="ellipse;whiteSpace=wrap;html=1;fillColor=#99CCFF;" vertex="1" parent="1">
          <mxGeometry y="10" width="120" height="80" as="geometry" />
        </mxCell>
        <mxCell id="bXIoARrkf679ZsKBz-0Q-6" value="" style="edgeStyle=orthogonalEdgeStyle;rounded=0;orthogonalLoop=1;jettySize=auto;html=1;" edge="1" parent="1" source="bXIoARrkf679ZsKBz-0Q-3" target="bXIoARrkf679ZsKBz-0Q-5">
          <mxGeometry relative="1" as="geometry" />
        </mxCell>
        <mxCell id="bXIoARrkf679ZsKBz-0Q-3" value="&quot;Solicitar al usuario que ingrese el texto&quot;" style="shape=parallelogram;perimeter=parallelogramPerimeter;whiteSpace=wrap;html=1;fixedSize=1;fillColor=#80FF00;" vertex="1" parent="1">
          <mxGeometry x="200" y="20" width="160" height="60" as="geometry" />
        </mxCell>
        <mxCell id="bXIoARrkf679ZsKBz-0Q-8" value="" style="edgeStyle=orthogonalEdgeStyle;rounded=0;orthogonalLoop=1;jettySize=auto;html=1;" edge="1" parent="1" source="bXIoARrkf679ZsKBz-0Q-5" target="bXIoARrkf679ZsKBz-0Q-7">
          <mxGeometry relative="1" as="geometry" />
        </mxCell>
        <mxCell id="bXIoARrkf679ZsKBz-0Q-5" value="&quot;Guardar el texto ingresado por el usuario en una variable&quot;" style="shape=parallelogram;perimeter=parallelogramPerimeter;whiteSpace=wrap;html=1;fixedSize=1;fillColor=#80FF00;" vertex="1" parent="1">
          <mxGeometry x="450" y="20" width="210" height="60" as="geometry" />
        </mxCell>
        <mxCell id="bXIoARrkf679ZsKBz-0Q-10" value="" style="edgeStyle=orthogonalEdgeStyle;rounded=0;orthogonalLoop=1;jettySize=auto;html=1;" edge="1" parent="1" source="bXIoARrkf679ZsKBz-0Q-7" target="bXIoARrkf679ZsKBz-0Q-9">
          <mxGeometry relative="1" as="geometry" />
        </mxCell>
        <mxCell id="bXIoARrkf679ZsKBz-0Q-7" value="&quot;Iniciar con el contador de vocales&quot;" style="shape=parallelogram;perimeter=parallelogramPerimeter;whiteSpace=wrap;html=1;fixedSize=1;fillColor=#80FF00;" vertex="1" parent="1">
          <mxGeometry x="785" y="20" width="215" height="60" as="geometry" />
        </mxCell>
        <mxCell id="bXIoARrkf679ZsKBz-0Q-12" value="" style="edgeStyle=orthogonalEdgeStyle;rounded=0;orthogonalLoop=1;jettySize=auto;html=1;" edge="1" parent="1" source="bXIoARrkf679ZsKBz-0Q-9" target="bXIoARrkf679ZsKBz-0Q-11">
          <mxGeometry relative="1" as="geometry" />
        </mxCell>
        <mxCell id="bXIoARrkf679ZsKBz-0Q-9" value="&quot;REVISAR LOS CARACTERES DEL TEXTO&quot;" style="rhombus;whiteSpace=wrap;html=1;fillColor=#474D0A;" vertex="1" parent="1">
          <mxGeometry x="791.25" y="220" width="202.5" height="180" as="geometry" />
        </mxCell>
        <mxCell id="bXIoARrkf679ZsKBz-0Q-14" value="" style="edgeStyle=orthogonalEdgeStyle;rounded=0;orthogonalLoop=1;jettySize=auto;html=1;" edge="1" parent="1" source="bXIoARrkf679ZsKBz-0Q-11" target="bXIoARrkf679ZsKBz-0Q-13">
          <mxGeometry relative="1" as="geometry" />
        </mxCell>
        <mxCell id="bXIoARrkf679ZsKBz-0Q-18" value="" style="edgeStyle=orthogonalEdgeStyle;rounded=0;orthogonalLoop=1;jettySize=auto;html=1;" edge="1" parent="1" source="bXIoARrkf679ZsKBz-0Q-11" target="bXIoARrkf679ZsKBz-0Q-17">
          <mxGeometry relative="1" as="geometry" />
        </mxCell>
        <mxCell id="bXIoARrkf679ZsKBz-0Q-11" value="&quot;VERIFICAR SI EL CARACTER ES UNA VOCAL&quot;" style="rhombus;whiteSpace=wrap;html=1;fillColor=#474D0A;" vertex="1" parent="1">
          <mxGeometry x="508.75" y="220" width="202.5" height="180" as="geometry" />
        </mxCell>
        <mxCell id="bXIoARrkf679ZsKBz-0Q-16" value="" style="edgeStyle=orthogonalEdgeStyle;rounded=0;orthogonalLoop=1;jettySize=auto;html=1;entryX=0.5;entryY=1;entryDx=0;entryDy=0;" edge="1" parent="1" source="bXIoARrkf679ZsKBz-0Q-13" target="bXIoARrkf679ZsKBz-0Q-9">
          <mxGeometry relative="1" as="geometry">
            <mxPoint x="910" y="630" as="targetPoint" />
          </mxGeometry>
        </mxCell>
        <mxCell id="bXIoARrkf679ZsKBz-0Q-13" value="&quot;Incrementa el número de vocales si es una vocal&quot;" style="shape=parallelogram;perimeter=parallelogramPerimeter;whiteSpace=wrap;html=1;fixedSize=1;fillColor=#80FF00;" vertex="1" parent="1">
          <mxGeometry x="476.25" y="600" width="267.5" height="60" as="geometry" />
        </mxCell>
        <mxCell id="bXIoARrkf679ZsKBz-0Q-20" value="" style="edgeStyle=orthogonalEdgeStyle;rounded=0;orthogonalLoop=1;jettySize=auto;html=1;entryX=1;entryY=0.5;entryDx=0;entryDy=0;" edge="1" parent="1" source="bXIoARrkf679ZsKBz-0Q-17" target="bXIoARrkf679ZsKBz-0Q-21">
          <mxGeometry relative="1" as="geometry">
            <mxPoint x="170" y="310" as="targetPoint" />
          </mxGeometry>
        </mxCell>
        <mxCell id="bXIoARrkf679ZsKBz-0Q-17" value="Mostrar el numero de vocales" style="shape=parallelogram;perimeter=parallelogramPerimeter;whiteSpace=wrap;html=1;fixedSize=1;fillColor=#80FF00;" vertex="1" parent="1">
          <mxGeometry x="260" y="280" width="167.5" height="60" as="geometry" />
        </mxCell>
        <mxCell id="bXIoARrkf679ZsKBz-0Q-21" value="FIN" style="ellipse;whiteSpace=wrap;html=1;fillColor=#99CCFF;" vertex="1" parent="1">
          <mxGeometry x="10" y="270" width="120" height="80" as="geometry" />
        </mxCell>
      </root>
    </mxGraphModel>
  </diagram>
</mxfile>
